<svg xmlns="http://www.w3.org/2000/svg" width="310" height="72.046" viewBox="0 0 310 72.046"><g transform="translate(20414 828.045)"><g transform="translate(-20414 -828.045)"><path d="M96.393,34.614a9.22,9.22,0,0,0,3.778-6.566,9.4,9.4,0,0,0-9.344-10.294H72.68A1.878,1.878,0,0,0,70.8,19.632V49.676a1.878,1.878,0,0,0,1.877,1.878H90.552a9.57,9.57,0,0,0,9.619-8.484,9.381,9.381,0,0,0-3.778-8.456m.018,8.293a5.765,5.765,0,0,1-5.78,4.892H74.558V21.509H90.827a5.64,5.64,0,0,1,5.584,6.376,5.765,5.765,0,0,1-5.78,4.891H83.944a1.878,1.878,0,0,0,0,3.756h6.608c.093,0,.183-.01.275-.013v.013a5.64,5.64,0,0,1,5.584,6.375" transform="translate(-0.022 -5.509)" fill="#fff"/><path d="M21.813,36.356a9.4,9.4,0,0,0,7.581-9.764,9.6,9.6,0,0,0-9.682-8.838H1.877A1.878,1.878,0,0,0,0,19.632V49.676a1.877,1.877,0,1,0,3.755,0V21.509H19.828a5.766,5.766,0,0,1,5.78,4.892,5.64,5.64,0,0,1-5.584,6.375h-4.2L17.7,36.532l6.99,13.984a1.877,1.877,0,1,0,3.358-1.679Z" transform="translate(0 -5.509)" fill="#fff"/><path d="M116.235,34.524a2.5,2.5,0,1,1-2.5-2.5,2.5,2.5,0,0,1,2.5,2.5" transform="translate(-0.034 -5.509)" fill="#fff"/><path d="M130.808,34.524a2.5,2.5,0,1,1-2.5-2.5,2.5,2.5,0,0,1,2.5,2.5" transform="translate(-0.039 -5.509)" fill="#fff"/><path d="M50.106,51.26A16.9,16.9,0,1,1,67,34.36a16.916,16.916,0,0,1-16.895,16.9m0-30.045A13.145,13.145,0,1,0,63.247,34.36,13.157,13.157,0,0,0,50.106,21.215" transform="translate(-0.01 -5.509)" fill="#fff"/><path d="M106.658,25.25a15.961,15.961,0,0,0-2.3,5.624A16.945,16.945,0,0,0,107.54,44.7a1.879,1.879,0,1,0,2.954-2.32,13.286,13.286,0,0,1-2.086-12.186,9.971,9.971,0,0,1,.7-1.7,13.244,13.244,0,0,1,10.958-7.239,7.343,7.343,0,0,1,1.165-3.777,16.9,16.9,0,0,0-14.574,7.776m27.682-1.128a7.413,7.413,0,0,1-2.357,3.167,13.257,13.257,0,0,1,1.669,10.359,11.9,11.9,0,0,1-1.385,3.36,13.209,13.209,0,0,1-9.663,6.388,1.879,1.879,0,1,0,.45,3.729A16.928,16.928,0,0,0,135.1,43.56a15.959,15.959,0,0,0,2.336-5.61,16.941,16.941,0,0,0-3.1-13.828" transform="translate(-0.032 -5.509)" fill="#fff"/><path d="M137.289,5.509h-4.2l-5.9,11.41a4.548,4.548,0,1,0,3.507,1.336Z" transform="translate(-0.038 -5.509)" fill="#fff"/><path d="M216.745,48.827,201.727,18.782a1.877,1.877,0,0,0-3.358,0L185.028,45.473,171.687,18.782a1.877,1.877,0,0,0-3.358,0L162.5,30.445l-5.829-11.663a1.877,1.877,0,0,0-3.358,0L138.293,48.827a1.878,1.878,0,0,0,1.678,2.718h0a1.877,1.877,0,0,0,1.678-1.038L154.99,23.821,162.5,38.843l7.509-15.022,13.339,26.686c.016.031.041.054.058.084a1.8,1.8,0,0,0,.132.191,1.882,1.882,0,0,0,.157.2,1.911,1.911,0,0,0,.208.171,1.7,1.7,0,0,0,.166.127,1.833,1.833,0,0,0,.326.144c.043.016.082.04.126.052a1.836,1.836,0,0,0,.431.061c.026,0,.05.011.075.011h.006c.024,0,.047-.01.072-.011a1.862,1.862,0,0,0,.435-.061c.043-.012.08-.035.122-.05a1.921,1.921,0,0,0,.33-.146,1.953,1.953,0,0,0,.163-.125,1.756,1.756,0,0,0,.211-.174,1.83,1.83,0,0,0,.155-.194,2.024,2.024,0,0,0,.134-.194c.017-.029.042-.052.057-.083l13.339-26.686,13.339,26.686a1.877,1.877,0,1,0,3.358-1.68" transform="translate(-0.043 -5.509)" fill="#fff"/><path d="M259.706,36.522h-6.883V32.766h6.883a1.878,1.878,0,0,1,0,3.756" transform="translate(-0.078 -5.509)" fill="#fff"/><path d="M272.593,21.5a1.878,1.878,0,0,0,0-3.756H246.938a1.878,1.878,0,0,0-1.877,1.878V49.667a1.878,1.878,0,0,0,1.877,1.878h25.655a1.878,1.878,0,0,0,0-3.756H248.815V21.5Z" transform="translate(-0.076 -5.509)" fill="#fff"/><path d="M300.7,32.776H288.185A5.638,5.638,0,0,1,282.6,26.4a5.761,5.761,0,0,1,5.779-4.892h19.827a1.878,1.878,0,0,0,0-3.755H288.185a9.4,9.4,0,0,0-9.344,10.294,9.571,9.571,0,0,0,9.618,8.484H300.7a5.641,5.641,0,0,1,5.584,6.375A5.767,5.767,0,0,1,300.5,47.8H280.675a1.878,1.878,0,0,0,0,3.756h19.749a9.569,9.569,0,0,0,9.618-8.484A9.4,9.4,0,0,0,300.7,32.776" transform="translate(-0.086 -5.509)" fill="#fff"/><path d="M238.893,17.744H213.238a1.878,1.878,0,0,0,0,3.756h10.951V49.667a1.877,1.877,0,1,0,3.754,0V21.5h10.951a1.878,1.878,0,0,0,0-3.756" transform="translate(-0.065 -5.509)" fill="#fff"/><path d="M255.1,36.522H200.066a1.878,1.878,0,0,1,0-3.756H255.1Z" transform="translate(-0.061 -5.509)" fill="#fff"/></g><path d="M-104.246-1.287a1.231,1.231,0,0,1-.378.916,1.269,1.269,0,0,1-.923.371,1.244,1.244,0,0,1-.916-.371,1.244,1.244,0,0,1-.371-.916V-14.213a1.244,1.244,0,0,1,.371-.916,1.244,1.244,0,0,1,.916-.371h.878a1.34,1.34,0,0,1,.749.318,3.442,3.442,0,0,1,.689.651l.272.318,7.72,9.143,7.78-9.143a4.1,4.1,0,0,1,.3-.363,5.125,5.125,0,0,1,.651-.568,1.389,1.389,0,0,1,.78-.356h.863a1.244,1.244,0,0,1,.916.371,1.244,1.244,0,0,1,.371.916V-1.287a1.244,1.244,0,0,1-.371.916A1.244,1.244,0,0,1-84.871,0a1.269,1.269,0,0,1-.923-.371,1.231,1.231,0,0,1-.378-.916V-11.625l-7.75,9.037a1.807,1.807,0,0,1-.174.182,2.4,2.4,0,0,1-.454.288,1.45,1.45,0,0,1-.689.182,1.344,1.344,0,0,1-.643-.167,2,2,0,0,1-.462-.318l-.151-.167-7.75-9.037Zm50.1.045a1.243,1.243,0,0,1-.136.59.916.916,0,0,1-.325.371A2.481,2.481,0,0,1-55-.091,1.391,1.391,0,0,1-55.33,0h-.136q-.045,0-.136-.008a1.517,1.517,0,0,1-.31-.083A1.618,1.618,0,0,1-56.3-.28a1.007,1.007,0,0,1-.3-.371,1.243,1.243,0,0,1-.136-.59V-6.463H-72.253v5.222a1.3,1.3,0,0,1-.129.59A.868.868,0,0,1-72.7-.28a2.647,2.647,0,0,1-.378.189,1.324,1.324,0,0,1-.31.091h-.136q-.061,0-.144-.008a1.706,1.706,0,0,1-.31-.083,1.736,1.736,0,0,1-.4-.189A1.029,1.029,0,0,1-74.7-.651a1.19,1.19,0,0,1-.144-.59v-9.1a4.972,4.972,0,0,1,1.514-3.648A4.972,4.972,0,0,1-69.68-15.5h10.369a4.972,4.972,0,0,1,3.648,1.514,4.972,4.972,0,0,1,1.514,3.648Zm-9.021-7.8h6.433v-1.271A2.5,2.5,0,0,0-57.5-12.14a2.477,2.477,0,0,0-1.816-.757H-69.68a2.477,2.477,0,0,0-1.816.757,2.5,2.5,0,0,0-.757,1.832v1.271h9.082ZM-29.908,0H-40.246a4.972,4.972,0,0,1-3.648-1.514,4.972,4.972,0,0,1-1.514-3.648v-5.071a5.141,5.141,0,0,1,1.514-3.708A4.9,4.9,0,0,1-40.246-15.5h10.338a4.972,4.972,0,0,1,3.648,1.514,4.972,4.972,0,0,1,1.514,3.648,1.221,1.221,0,0,1-.378.893,1.239,1.239,0,0,1-.908.378,1.239,1.239,0,0,1-.908-.378,1.221,1.221,0,0,1-.378-.893,2.477,2.477,0,0,0-.757-1.816,2.5,2.5,0,0,0-1.832-.757H-40.246a2.415,2.415,0,0,0-1.794.749,2.509,2.509,0,0,0-.734,1.824q0,1.014-.023,2.588t-.023,2.588a2.482,2.482,0,0,0,.749,1.824,2.482,2.482,0,0,0,1.824.749h10.338a2.52,2.52,0,0,0,1.847-.734,2.481,2.481,0,0,0,.742-1.839h-6.463A1.231,1.231,0,0,1-34.7-5.54a1.269,1.269,0,0,1-.371-.923,1.2,1.2,0,0,1,.378-.885,1.251,1.251,0,0,1,.908-.371q1.271,0,3.239-.015t3.224-.015a2.477,2.477,0,0,1,1.816.757,2.5,2.5,0,0,1,.757,1.832,5.023,5.023,0,0,1-1.483,3.648A4.944,4.944,0,0,1-29.908,0ZM4.7-1.241a1.243,1.243,0,0,1-.136.59.916.916,0,0,1-.325.371,2.481,2.481,0,0,1-.386.189A1.391,1.391,0,0,1,3.523,0H3.386Q3.341,0,3.25-.008a1.517,1.517,0,0,1-.31-.083A1.618,1.618,0,0,1,2.554-.28a1.007,1.007,0,0,1-.3-.371,1.243,1.243,0,0,1-.136-.59V-6.463H-13.4v5.222a1.3,1.3,0,0,1-.129.59.868.868,0,0,1-.318.371,2.647,2.647,0,0,1-.378.189,1.324,1.324,0,0,1-.31.091h-.136q-.061,0-.144-.008a1.706,1.706,0,0,1-.31-.083,1.736,1.736,0,0,1-.4-.189,1.03,1.03,0,0,1-.318-.371,1.19,1.19,0,0,1-.144-.59v-9.1a4.972,4.972,0,0,1,1.514-3.648A4.972,4.972,0,0,1-10.827-15.5H-.458A4.972,4.972,0,0,1,3.19-13.986,4.972,4.972,0,0,1,4.7-10.338Zm-9.021-7.8H2.115v-1.271a2.5,2.5,0,0,0-.757-1.832A2.477,2.477,0,0,0-.458-12.9H-10.827a2.477,2.477,0,0,0-1.816.757,2.5,2.5,0,0,0-.757,1.832v1.271h9.082Zm20.352-3.875a1.256,1.256,0,0,1-.923-.378,1.256,1.256,0,0,1-.378-.923,1.231,1.231,0,0,1,.378-.916,1.269,1.269,0,0,1,.923-.371h15.5a1.244,1.244,0,0,1,.916.371,1.244,1.244,0,0,1,.371.916,1.191,1.191,0,0,1-.651,1.135L18.335-2.588H32.821a1.231,1.231,0,0,1,.916.378,1.269,1.269,0,0,1,.371.923,1.244,1.244,0,0,1-.371.916A1.244,1.244,0,0,1,32.821,0H14.732a1.244,1.244,0,0,1-.916-.371,1.244,1.244,0,0,1-.371-.916,1.217,1.217,0,0,1,.545-1.06l13.9-10.565ZM45.453-1.287a1.231,1.231,0,0,1-.378.916A1.269,1.269,0,0,1,44.151,0a1.244,1.244,0,0,1-.916-.371,1.244,1.244,0,0,1-.371-.916V-14.213a1.23,1.23,0,0,1,.4-.885,1.23,1.23,0,0,1,.885-.4,1.207,1.207,0,0,1,.885.394,1.243,1.243,0,0,1,.386.893q0,2.528.015,6.463T45.453-1.287Zm26.8-12.927a1.268,1.268,0,0,1,.371-.893,1.159,1.159,0,0,1,.87-.394,1.348,1.348,0,0,1,.946.371,1.2,1.2,0,0,1,.4.916V-1.393a1.329,1.329,0,0,1-.416.984A1.366,1.366,0,0,1,73.434,0h-.227a5.032,5.032,0,0,1-2.195-1.2L56.784-11.928V-1.287a1.231,1.231,0,0,1-.378.916A1.269,1.269,0,0,1,55.482,0a1.244,1.244,0,0,1-.916-.371,1.244,1.244,0,0,1-.371-.916V-14.213a1.244,1.244,0,0,1,.371-.916,1.244,1.244,0,0,1,.916-.371h.242a1.435,1.435,0,0,1,.318.038,1.5,1.5,0,0,1,.356.136q.189.1.341.174a2.8,2.8,0,0,1,.371.235l.325.235q.106.076.341.25l.3.219L72.253-3.587ZM88.746,0A4.972,4.972,0,0,1,85.1-1.514a4.972,4.972,0,0,1-1.514-3.648v-5.177A4.972,4.972,0,0,1,85.1-13.986,4.972,4.972,0,0,1,88.746-15.5h14.213a1.244,1.244,0,0,1,.916.371,1.244,1.244,0,0,1,.371.916,1.3,1.3,0,0,1-.371.931,1.219,1.219,0,0,1-.916.386H88.746a2.477,2.477,0,0,0-1.816.757,2.5,2.5,0,0,0-.757,1.832v1.271h14.2a1.269,1.269,0,0,1,.923.371,1.231,1.231,0,0,1,.378.916,1.231,1.231,0,0,1-.378.916,1.269,1.269,0,0,1-.923.371h-14.2v1.3a2.482,2.482,0,0,0,.749,1.824,2.482,2.482,0,0,0,1.824.749h14.213a1.231,1.231,0,0,1,.916.378,1.269,1.269,0,0,1,.371.923,1.244,1.244,0,0,1-.371.916,1.244,1.244,0,0,1-.916.371Z" transform="translate(-20259 -755.999)" fill="#fff"/></g></svg>