<?xml version="1.0" encoding="UTF-8"?><svg id="_イヤー_1" xmlns="http://www.w3.org/2000/svg" viewBox="0 0 310 12" width="310" height="12"><defs><style>.cls-1{fill:none;}</style></defs><path d="M7.35,9.81v.83h1.56c-.04-.35-.05-.7-.05-1.04V2.74c0-.44,.01-.68,.04-1-.28,.02-.49,.04-1.01,.04H1.03c-.48,0-.74-.01-1.03-.04,.04,.33,.05,.67,.05,1.01v6.88C.05,9.97,.04,10.31,0,10.66H1.56v-.84H7.35Zm0-1.37H1.56V3.13H7.35v5.31ZM17.22,2.68v-.63c-.01-.43,0-.86,.05-1.28h-1.63c.06,.41,.09,.83,.07,1.24v.67h-2.66c-.52,.02-1.03,0-1.54-.08v1.48c.5-.06,1.01-.08,1.52-.06h2.68v5.81c0,.45-.01,.91-.07,1.36h1.64c-.05-.45-.07-.9-.06-1.34V4.02h2.79c.51-.02,1.02,0,1.53,.06v-1.48c-.5,.08-1,.11-1.51,.08l.83-.31c-.26-.68-.63-1.32-1.07-1.9l-.89,.31c.43,.58,.79,1.22,1.05,1.9h-2.73Zm-4.21,2.2c-.26,1.7-.97,3.29-2.05,4.63,.51,.18,.98,.44,1.4,.77,.98-1.4,1.67-2.98,2.03-4.66,.02-.12,.05-.19,.05-.2s.02-.1,.05-.18l-1.48-.36Zm5.42,.36c.08,.18,.15,.37,.19,.56,.43,1.59,1.09,3.1,1.97,4.49,.44-.32,.9-.6,1.39-.84-1-1.37-1.73-2.92-2.14-4.57l-1.42,.36Zm4.02-3.38c-.26-.66-.62-1.27-1.06-1.82l-.86,.31c.42,.58,.77,1.2,1.03,1.86l.89-.35Zm2.03,2.12c.49,.91,.86,1.89,1.1,2.9l1.36-.43c-.29-.99-.69-1.94-1.19-2.84l-1.27,.37Zm2.58-.5c.47,.89,.84,1.84,1.1,2.82l1.34-.42c-.27-.97-.66-1.89-1.17-2.76l-1.27,.36Zm4.15-.12c-.01,.47-.08,.93-.22,1.38-.36,1.68-1.34,3.17-2.74,4.16-.63,.47-1.32,.84-2.06,1.1,.39,.33,.72,.74,.97,1.18,1.45-.63,2.72-1.63,3.68-2.89,.84-1.2,1.4-2.56,1.67-4,.03-.21,.09-.42,.17-.61l-1.47-.33Zm8.25,7.69c-.04-.44-.06-.89-.05-1.33v-3.17c0-.27-.01-.55-.05-.82,.13,.07,.27,.14,.41,.2,1.49,.64,2.92,1.41,4.28,2.3l.85-1.42c-1.75-1-3.59-1.84-5.48-2.53V2.05c-.02-.42,0-.84,.05-1.26h-1.65c.06,.4,.08,.81,.07,1.22v7.7c.01,.45-.01,.9-.07,1.34h1.65Zm10.4-.25c-.01-.16-.01-.25-.01-.32,.12-1.27,.48-2.51,1.07-3.64l-.96-.43c-.25,.51-.46,1.04-.63,1.58,.01-.3,.02-.4,.02-.66,0-.89,.06-1.77,.18-2.65,.12-1.22,.37-2.42,.76-3.59l-1.59-.17c-.03,.38-.09,.75-.18,1.12-.33,1.54-.49,3.12-.49,4.69,0,1.2,.11,2.4,.31,3.59,.04,.28,.05,.35,.06,.56l1.45-.08Zm1.67-7.19c.72,.1,1.45,.14,2.17,.13,.86,0,1.73-.04,2.58-.14,.58-.07,.76-.1,.86-.11l-.07-1.45c-1.08,.24-2.18,.35-3.28,.32-.75,.03-1.5-.03-2.23-.19l-.02,1.44Zm.83,1.98c-.65,.67-1.05,1.54-1.11,2.47,0,.42,.12,.83,.36,1.18,.53,.71,1.5,1.04,2.99,1.04,.84,0,1.67-.08,2.5-.23,.16-.03,.33-.06,.49-.07l-.12-1.52c-.93,.31-1.9,.47-2.87,.45-1.26,0-1.92-.36-1.92-1.04,.06-.66,.37-1.28,.86-1.73l-1.18-.55Zm7.54-.72c.31-.15,.63-.26,.97-.34,1.54-.51,3.14-.79,4.76-.85,.54-.03,1.07,.09,1.56,.32,.57,.31,.92,.91,.92,1.56,0,.29-.04,.58-.13,.85-.35,.81-1,1.45-1.82,1.78-1.26,.49-2.61,.73-3.97,.71,.29,.48,.49,1,.62,1.55,1.47-.06,2.91-.4,4.25-1,1.58-.63,2.63-2.14,2.68-3.84,0-2.04-1.56-3.37-3.95-3.37-1.62,.02-3.24,.25-4.8,.68-.46,.12-.94,.2-1.41,.24l.35,1.71Zm12.2-3.18c.03,.25,.05,.51,.05,.77,.05,3.32,.27,5.06,.76,6.26,.48,1.15,1.14,1.74,1.94,1.74,1.03,0,1.73-.97,2.35-3.31-.45-.31-.86-.67-1.2-1.09-.12,.75-.33,1.48-.64,2.17-.14,.34-.31,.52-.5,.52-.39,0-.77-.77-.98-2.02-.15-1.07-.23-2.14-.23-3.22,0-.61,.03-1.22,.1-1.82h-1.66Zm6.1,1.14c.73,.88,1.31,1.88,1.71,2.95,.43,1.11,.69,2.28,.77,3.47l1.5-.56c-.24-2.38-1.19-4.62-2.72-6.46l-1.26,.6Zm5.36,.9c.66-.12,1.33-.2,2-.24,2.62-.19,3.09-.23,4.07-.37-.63,.29-1.2,.69-1.68,1.2-.72,.77-1.13,1.78-1.15,2.83-.02,1.21,.65,2.33,1.73,2.89,.88,.45,1.84,.72,2.82,.79,.14,.01,.28,.04,.41,.07l.22-1.63c-.12,.01-.23,.01-.24,.01-.61-.03-1.22-.13-1.8-.31-.93-.19-1.6-1.01-1.61-1.96,.16-1.44,1.1-2.67,2.44-3.2,.74-.4,1.55-.62,2.39-.65,.08,0,.17,0,.25,.01l-.08-1.54c-.46,.09-.92,.13-1.39,.12-3.34,.16-5.35,.26-6.02,.3q-1.77,.12-1.99,.12c-.06,0-.19,0-.46-.01l.09,1.56Zm18.01-.91c.43,.02,.85,.14,1.22,.36,.95,.55,1.52,1.57,1.49,2.66,.03,1.23-.61,2.38-1.68,3-.75,.37-1.56,.6-2.4,.66,.34,.41,.59,.89,.74,1.4,.65-.09,1.29-.26,1.89-.5,1.83-.72,3.01-2.51,2.93-4.48,0-2.7-1.88-4.45-4.78-4.45-1.56-.06-3.07,.55-4.15,1.68-.87,.96-1.34,2.2-1.33,3.49,0,1.93,.99,3.32,2.37,3.32,.99,0,1.76-.71,2.45-2.26,.65-1.56,1.08-3.21,1.25-4.9h0Zm-1.47,.01c-.15,1.39-.49,2.75-1,4.06-.43,1.03-.85,1.54-1.24,1.54-.53,0-.95-.78-.95-1.76,0-1.28,.61-2.48,1.64-3.24,.45-.33,.99-.54,1.55-.59h0Zm11.99,5.36v1.78c0,.24-.08,.28-.62,.28-.5,0-1-.05-1.5-.12,.2,.4,.33,.83,.4,1.27,.63,.04,1.03,.05,1.18,.05,1.09,0,1.5-.1,1.7-.4,.14-.23,.19-.49,.15-.75v-2.1h3.14c.5,0,1,.02,1.5,.07v-1.33c-.49,.06-.99,.09-1.49,.08h-3.15c.85-.52,1.66-1.11,2.41-1.76q.23-.19,.43-.36l-.66-.73c-.3,.04-.61,.06-.92,.05h-4c-.41,0-.81-.01-1.22-.06v1.2c.4-.04,.8-.05,1.21-.05h3.32c-.43,.39-.91,.71-1.42,.97h-.52c.03,.22,.04,.44,.04,.66v.08h-3.28c-.49,0-.98-.02-1.46-.08v1.33c.49-.05,.98-.08,1.47-.07h3.28Zm-3.22-5.93c-.48,.01-.95,0-1.42-.05,.04,.33,.05,.67,.05,1v1.1c0,.31-.01,.62-.06,.92h1.32v-1.86h7.86v1.86h1.32c-.04-.3-.06-.61-.06-.91v-1.12c0-.33,0-.67,.05-1-.49,.04-.99,.06-1.49,.05h-.54c.33-.46,.64-.94,.9-1.44l-1.3-.36c-.25,.64-.58,1.25-.99,1.8h-1.03c-.21-.65-.49-1.27-.83-1.86l-1.25,.35c.31,.47,.55,.98,.74,1.51h-1.28c-.3-.61-.67-1.19-1.1-1.72l-1.22,.36c.35,.41,.66,.87,.9,1.36h-.56Zm10.91,.78c.1-.02,.2-.03,.3-.04,.68-.03,1.35-.11,2.02-.23l.16-.04c.06-.02,.12-.03,.18-.04-.05,.04-.1,.08-.13,.13-.06,.06-.13,.12-.21,.18-.47,.46-.88,.98-1.22,1.55-.52,.88-.81,1.87-.83,2.89-.04,1.21,.52,2.35,1.5,3.06,.62,.38,1.34,.57,2.07,.56,2.28,0,3.92-1.84,3.92-4.42,.02-.71-.07-1.42-.25-2.1,.5,.92,1.15,1.75,1.93,2.46,.06,.06,.12,.11,.18,.16,.03,.04,.06,.08,.1,.11l.75-1.43c-1.52-1.09-2.65-2.64-3.22-4.43l-1.45,.42c.45,1.16,.67,2.4,.65,3.65,.04,.89-.12,1.78-.45,2.62-.36,.91-1.24,1.5-2.21,1.49-1.11,.03-2.04-.84-2.07-1.95,0-.07,0-.15,0-.22,.08-1.33,.63-2.59,1.56-3.55,.42-.52,.92-.96,1.49-1.31l-.76-1.3c-1.12,.29-2.27,.42-3.43,.38-.2,0-.4-.01-.6-.04l.02,1.42Zm7.45-1.91c.5,.53,.93,1.13,1.26,1.78l.85-.44c-.34-.64-.77-1.23-1.27-1.76l-.84,.42Zm3.55,.56c-.33-.62-.75-1.2-1.26-1.69l-.81,.42c.48,.53,.89,1.11,1.23,1.74l.83-.47Zm1.36,1.56c.06,0,.13-.01,.19-.01q.11,0,.34,.01c.27,0,1.33,.02,1.52,.02,0,0,.16-.01,.21-.01-.04,.05-.08,.1-.1,.16-.43,.72-.91,1.41-1.45,2.05-.32,.39-.69,.75-1.09,1.07l1.1,1.08c.3-.41,.65-.78,1.05-1.09,.66-.69,1.53-1.12,2.47-1.24,.36-.04,.69,.22,.73,.58,0,.02,0,.04,0,.07-1,.32-1.9,.91-2.6,1.69-.34,.36-.53,.84-.53,1.33-.01,.64,.33,1.23,.89,1.55,.84,.4,1.77,.58,2.69,.5,1.03,0,2.07-.07,3.09-.22,.18-.03,.37-.04,.55-.04l-.12-1.55c-1.15,.37-2.35,.54-3.55,.5-1.46,0-2.04-.25-2.04-.88,.04-.41,.27-.78,.63-.98,.37-.24,.75-.45,1.16-.62v.29c.01,.47-.01,.93-.07,1.39l1.4-.04c-.03-.21-.04-.42-.04-.64,0-.08,0-.19,.01-.4v-.48q0-.17-.01-.48v-.13c1.04-.36,1.64-.56,1.81-.61,.44-.14,.89-.24,1.34-.32l-.57-1.38c-.28,.16-.58,.28-.89,.36-.3,.1-.92,.31-1.85,.65-.16-.81-.91-1.36-1.73-1.27-.61,0-1.2,.19-1.7,.54q-.16,.12-.24,.18v-.02c.44-.47,.81-1.01,1.1-1.6,1.22-.04,2.75-.13,3.63-.24q.62-.07,.95-.1l-.08-1.37c-1.04,.24-2.1,.38-3.16,.41q-.66,.04-.76,.05s.05-.08,.11-.22c.14-.37,.3-.73,.48-1.08l-1.58-.17c-.08,.52-.24,1.02-.48,1.49-.94,.04-1.87-.01-2.8-.16l-.03,1.38Zm15.2-.13V1.88c-.01-.34,0-.69,.05-1.03h-1.58c.05,.35,.07,.71,.06,1.07v1.2h-.71c-.52,.02-1.05,0-1.57-.08v1.46c.51-.05,1.03-.07,1.54-.06h.74v1.77c0,.34,0,.69-.05,1.03h1.57c-.04-.33-.06-.67-.05-1.01v-1.8h3.13c-.02,.83-.02,1.12-.05,1.39,.02,1.1-.45,2.16-1.28,2.88-.67,.55-1.46,.94-2.3,1.14,.39,.35,.7,.79,.9,1.27,.86-.26,1.66-.69,2.35-1.26,1.04-.85,1.67-2.1,1.74-3.44,.07-.66,.1-1.32,.08-1.98h.81c.52-.01,1.03,0,1.54,.06v-1.46c-.52,.08-1.04,.1-1.57,.08h-.77q.01-.72,.01-1.45c0-.27,0-.54,.05-.8h-1.56c.06,.44,.08,.89,.06,1.33v.92h-3.14Zm14.36-.26v-.64c-.01-.42,0-.85,.05-1.27h-1.64c.06,.41,.09,.82,.07,1.24v.67h-2.65c-.52,.02-1.03,0-1.54-.08v1.48c.5-.06,1.01-.08,1.52-.06h2.68v5.81c.01,.45-.01,.9-.07,1.35h1.64c-.05-.45-.07-.9-.06-1.34V4.2h2.79c.51-.02,1.02,0,1.53,.06v-1.42c.55-.2,.91-.72,.92-1.31-.01-.77-.63-1.38-1.4-1.38-.76,0-1.38,.62-1.39,1.38,0,.61,.4,1.14,.98,1.32-.29,.01-.41,.01-.66,.01h-2.76Zm3.84-2.11c.43,0,.79,.33,.8,.77h0c0,.45-.36,.81-.8,.81h0c-.43,0-.79-.36-.79-.79,0-.43,.35-.78,.78-.78h0Zm-8.05,4.32c-.26,1.69-.96,3.29-2.04,4.62,.5,.19,.98,.45,1.4,.78,.98-1.4,1.67-2.99,2.02-4.66,.02-.11,.05-.18,.05-.2s.02-.1,.05-.17l-1.48-.37Zm5.42,.36c.08,.18,.15,.36,.19,.55,.42,1.59,1.09,3.1,1.98,4.49,.43-.32,.9-.6,1.39-.83-1-1.37-1.72-2.92-2.14-4.57l-1.42,.36Zm4.97,1.31c.65-.07,1.31-.09,1.97-.06h6.41c.66-.03,1.31,0,1.97,.06v-1.67c-.65,.08-1.3,.11-1.96,.08h-6.43c-.65,.03-1.31,0-1.96-.08v1.67Zm16.06,4.31c-.04-.44-.05-.89-.05-1.33v-3.17c0-.27-.01-.55-.05-.82,.13,.07,.27,.14,.41,.2,1.49,.64,2.92,1.41,4.27,2.29l.85-1.42c-1.75-1-3.58-1.84-5.48-2.53V2.05c-.02-.42,0-.84,.05-1.26h-1.65c.06,.41,.08,.81,.07,1.22v7.7c.01,.45-.01,.9-.07,1.34h1.65Zm15-6.92v-.78c.95-.02,1.17-.02,1.46-.02,1,0,1.58,.02,2.03,.06v-1.38c-.46,.05-1.4,.07-3.5,.08-.02-.48,0-.95,.06-1.43h-1.52c.08,.49,.1,.98,.07,1.46q-.63,.02-1.03,.04c-.99,.02-1.11,.02-1.9,.05-1.56,.06-1.75,.06-2.05,.06-.2,0-.39,0-.59-.02l.05,1.43q.33-.05,2.15-.18c.53-.04,1.67-.07,3.39-.12,0,.32,0,1,.01,1.02,0,.05,0,.1,.01,.14-.37-.26-.81-.38-1.26-.36-1.22-.1-2.29,.8-2.39,2.02,0,.05,0,.11,0,.16-.02,.65,.29,1.26,.83,1.62,.4,.3,.9,.45,1.4,.43,.7,.05,1.37-.28,1.77-.85-.17,.77-.69,1.42-1.4,1.75-.63,.36-1.33,.6-2.05,.7,.38,.39,.67,.85,.86,1.36,.77-.22,1.51-.55,2.18-.98,1.12-.7,1.79-1.92,1.8-3.24,0-.59-.12-1.17-.39-1.69,0-.14-.01-.24-.01-.29v-1.04Zm-1.38,1.98c0,.61-.51,1.09-1.12,1.08-.02,0-.04,0-.07,0-.52,.04-.98-.35-1.02-.87,0-.03,0-.05,0-.08,.05-.57,.55-1,1.12-.96,.67,0,1.09,.32,1.09,.83Zm10.43-.58c.17-.09,.34-.2,.49-.31,.24-.16,1.11-.8,1.33-.98,.41-.35,1.29-1.13,1.9-1.68,.18-.2,.39-.36,.63-.49l-.75-1.05c-.24,.11-.49,.16-.75,.16-1.17,.08-2.64,.14-3.67,.14-.48,0-.95-.02-1.42-.07l.06,1.44c.19-.03,.38-.05,.58-.06,2.18-.1,2.96-.14,3.42-.2h.01l-.22,.23c-1.14,1.11-2.35,2.15-3.61,3.12-.53,.43-1.1,.81-1.7,1.13l.82,1.3c1.35-1.27,3.12-1.98,4.97-2.02,1.46,0,2.39,.61,2.39,1.55,0,.85-.43,1.37-1.44,1.74-.11-.39-.3-.76-.55-1.08-.5-.64-1.28-1-2.09-.98-1.02-.13-1.94,.59-2.07,1.61,0,.03,0,.07,0,.1,0,.55,.27,1.06,.72,1.38,.71,.41,1.52,.61,2.34,.55,1.02,.02,2.02-.21,2.92-.68,1.01-.5,1.65-1.53,1.64-2.65,0-1.64-1.33-2.7-3.39-2.7-.88,0-1.74,.18-2.54,.55l-.02-.03Zm1.74,4.27c-.21,.04-.42,.05-.63,.05-.89,0-1.44-.28-1.44-.76,0-.34,.28-.55,.71-.55,.68,0,1.13,.43,1.35,1.26h0Zm12.52-3.61l.04,3.59v.22c0,.39-.02,.77-.07,1.15h1.64c-.04-.34-.06-.79-.07-1.38l-.06-5.57h1.24c.46,0,.93,0,1.39,.05v-1.45c-.47,.08-.95,.11-1.42,.08h-1.22l-.02-.97v-.07c0-.34,0-.68,.05-1.02h-1.59c.04,.37,.06,.73,.06,1.1v.96h-4.16c-.51,.03-1.02,0-1.52-.08v1.46c.49-.05,.99-.07,1.49-.06h3.31c-.46,.72-1.01,1.38-1.62,1.98-1.1,1.09-2.39,1.97-3.8,2.6,.43,.33,.77,.76,1,1.25,.62-.33,1.21-.7,1.79-1.1,.86-.62,1.65-1.32,2.38-2.09,.49-.5,.9-1.06,1.23-1.68-.01,.19-.04,.8-.04,.86v.17Zm15.25-3.7q-.29,.1-1.18,.1h-2.17V1.56c0-.29,.02-.58,.06-.86h-1.68c.05,.29,.07,.58,.06,.88v1.03h-2.37c-.43,0-.87-.01-1.3-.06,.04,.38,.05,.76,.05,1.14v1.74c0,.34-.02,.67-.06,1.01h1.61c-.02-.26-.04-.59-.04-.96v-1.55h5.89c-.1,1.99-1.19,3.8-2.9,4.81-.79,.48-1.66,.82-2.57,1,.41,.41,.74,.89,.97,1.43,.84-.26,1.65-.63,2.4-1.08,1.33-.75,2.37-1.91,2.98-3.31,.4-.92,.65-1.9,.76-2.9,.02-.23,.08-.45,.18-.66l-.69-.72Zm3.42,.32c1.15,.65,2.18,1.47,3.08,2.44l1.04-1.31c-.95-.89-1.99-1.67-3.12-2.32l-1,1.19Zm.42,7.92c.26-.09,.53-.16,.8-.2,1.63-.3,3.19-.91,4.6-1.8,1.71-1.16,3.04-2.79,3.83-4.7-.49-.32-.92-.71-1.28-1.18-.3,.85-.71,1.66-1.23,2.4-.88,1.31-2.13,2.33-3.59,2.94-1.14,.49-2.34,.78-3.57,.89l.44,1.65Zm14.82,.32c-.04-.44-.06-.89-.05-1.33v-3.17c0-.27-.02-.55-.05-.82,.13,.07,.27,.14,.41,.2,1.49,.64,2.91,1.41,4.27,2.29l.85-1.42c-1.75-1-3.58-1.85-5.48-2.53V2.05c-.01-.42,0-.84,.05-1.26h-1.65c.06,.4,.08,.81,.07,1.22v7.7c.01,.45-.01,.9-.07,1.34h1.65Zm2.47-9.22c.5,.54,.93,1.14,1.27,1.79l.85-.44c-.34-.65-.76-1.24-1.27-1.77l-.85,.42Zm3.55,.56c-.33-.62-.75-1.19-1.26-1.69l-.81,.42c.48,.53,.89,1.11,1.23,1.74l.83-.47Zm8.92-1.5c-.38,1.36-.95,2.67-1.7,3.86q-.1-.06-1-.71c-.59-.42-1.11-.76-1.99-1.27l-1.06,1.06c1.13,.62,2.2,1.35,3.2,2.16-.46,.59-.97,1.14-1.53,1.63-.93,.85-1.99,1.55-3.13,2.08,.44,.33,.81,.76,1.06,1.24,1.03-.55,1.99-1.21,2.87-1.98,.69-.6,1.32-1.27,1.88-2,.9,.76,1.72,1.61,2.45,2.53l1.16-1.24c-.84-.91-1.74-1.76-2.69-2.55,.67-1.08,1.24-2.22,1.7-3.4,.12-.3,.26-.59,.42-.86l-1.64-.56Zm12.66,.36c-.51,.08-1.04,.11-1.56,.08h-3.55c-.52,.02-1.04,0-1.56-.08v1.46c.51-.06,1.02-.08,1.53-.06h3.6c.51-.02,1.02,0,1.53,.06V1.26Zm.76,4.4c.51-.02,1.02,0,1.53,.06v-1.42c-.51,.08-1.04,.11-1.56,.08h-7.06c-.52,.02-1.04,0-1.56-.08v1.43c.51-.06,1.02-.08,1.54-.06h2.93c-.08,2.33-1.03,3.52-3.39,4.26,.42,.37,.76,.82,.99,1.33,2.73-1.04,3.86-2.63,4-5.59h2.57Zm2.56-3.83c-.27-.65-.62-1.27-1.06-1.82l-.87,.31c.42,.58,.77,1.2,1.04,1.86l.89-.35Zm-3.51-1.04c.43,.59,.79,1.24,1.06,1.92l.9-.34c-.27-.68-.64-1.32-1.07-1.9l-.89,.32Zm11.66,1.97c-.21,.32-.46,.61-.74,.86-1.01,.98-2.17,1.8-3.43,2.44-.91,.47-1.87,.83-2.86,1.08,.31,.38,.56,.8,.75,1.25,1.19-.38,2.34-.89,3.42-1.52v3.22c.01,.38,0,.76-.06,1.14h1.56c-.05-.37-.07-.76-.06-1.14V6c.81-.59,1.56-1.24,2.24-1.97,.12-.15,.26-.28,.41-.4l-1.23-.87Zm13.96-1.43c-.38,.1-.78,.14-1.17,.11h-6.3c-.56,.01-1.11-.02-1.67-.1v1.5c.54-.06,1.09-.09,1.64-.07h6.34c-.28,.58-.67,1.09-1.15,1.52-.51,.47-1.11,.85-1.76,1.1,.43,.29,.8,.66,1.09,1.09,.52-.28,1.01-.61,1.45-1,.77-.67,1.41-1.48,1.86-2.4,.12-.3,.28-.59,.48-.84l-.81-.91Zm-5.73,2.42c.05,.24,.07,.48,.06,.72,0,2.27-.39,3.3-1.62,4.27-.62,.49-1.34,.83-2.11,1.02,.41,.39,.73,.85,.95,1.37,1.22-.42,2.3-1.17,3.11-2.16,.88-1.23,1.31-2.74,1.2-4.25-.01-.32,0-.65,.05-.97h-1.64Z"/><rect class="cls-1" width="310" height="12"/></svg>
