<svg xmlns="http://www.w3.org/2000/svg" width="344" height="34" viewBox="0 0 344 34"><g transform="translate(22080 -6132)"><path d="M19.684-7.252a6.6,6.6,0,0,0-2.22-5.217c-1.11-.962-2.331-1.48-4.81-1.85l-2.886-.444a7.578,7.578,0,0,1-3.552-1.443A3.8,3.8,0,0,1,5.032-19.24c0-2.923,2.035-4.884,5.55-4.884a8.3,8.3,0,0,1,6.142,2.257l1.813-1.813a10.576,10.576,0,0,0-7.844-2.886c-5.217,0-8.436,2.96-8.436,7.437a6.226,6.226,0,0,0,2,4.921,9.576,9.576,0,0,0,4.847,2l3.071.481c1.924.3,2.59.518,3.441,1.258a4.241,4.241,0,0,1,1.258,3.293c0,3.071-2.368,4.884-6.216,4.884A9.051,9.051,0,0,1,3.478-5.18L1.554-3.256C4.033-.777,6.623.222,10.582.222,16.058.222,19.684-2.627,19.684-7.252ZM40.922-23.828v-2.516H22.866v2.516h7.622V0H33.3V-23.828ZM63.862-8.695V-26.344H61.05V-8.917c0,4-2.553,6.623-6.4,6.623s-6.364-2.627-6.364-6.623V-26.344H45.473V-8.695c0,5.254,3.848,8.917,9.176,8.917S63.862-3.441,63.862-8.695Zm25.53-4.773c0-3.663.148-7.7-2.59-10.434a9.21,9.21,0,0,0-6.66-2.442H71.114V0h9.028A9.21,9.21,0,0,0,86.8-2.442C89.54-5.18,89.392-9.8,89.392-13.468Zm-2.812,0c0,3.219.074,7.141-1.739,9.028a6.855,6.855,0,0,1-5.18,1.924H73.926V-23.828h5.735a6.855,6.855,0,0,1,5.18,1.924C86.654-20.017,86.58-16.687,86.58-13.468Zm23.976-12.876h-3.034L101.38-13.727,95.164-26.344H92.13l7.844,15.466V0h2.812V-10.878Z" transform="translate(-21846.557 6165.778)" fill="#00a6b4"/><g transform="translate(-22080 6132)"><path d="M89.249,29.9a6.644,6.644,0,0,0,2.723-4.732,6.774,6.774,0,0,0-6.736-7.418H72.156A1.353,1.353,0,0,0,70.8,19.107v21.65a1.353,1.353,0,0,0,1.353,1.353H85.039A6.9,6.9,0,0,0,91.972,36,6.759,6.759,0,0,0,89.249,29.9m.013,5.976A4.155,4.155,0,0,1,85.1,39.4H73.51V20.46H85.237a4.065,4.065,0,0,1,4.025,4.595A4.155,4.155,0,0,1,85.1,28.579h-4.82a1.353,1.353,0,0,0,0,2.707h4.763c.067,0,.132-.007.2-.009v.009a4.064,4.064,0,0,1,4.025,4.594" transform="translate(-19.782 -9.152)" fill="#302d2c"/><path d="M15.724,31.159a6.773,6.773,0,0,0,5.464-7.036,6.915,6.915,0,0,0-6.979-6.369H1.353A1.353,1.353,0,0,0,0,19.107v21.65a1.353,1.353,0,1,0,2.707,0V20.46H14.293a4.156,4.156,0,0,1,4.167,3.525,4.065,4.065,0,0,1-4.025,4.594H11.408l1.353,2.707L17.8,41.363a1.353,1.353,0,1,0,2.421-1.21Z" transform="translate(0 -9.152)" fill="#302d2c"/><path d="M114.838,33.824a1.8,1.8,0,1,1-1.805-1.8,1.8,1.8,0,0,1,1.805,1.8" transform="translate(-31.076 -13.059)" fill="#009389"/><path d="M129.411,33.824a1.8,1.8,0,1,1-1.8-1.8,1.8,1.8,0,0,1,1.8,1.8" transform="translate(-35.148 -13.059)" fill="#009389"/><path d="M45.389,41.816A12.179,12.179,0,1,1,57.568,29.638,12.192,12.192,0,0,1,45.389,41.816m0-21.651a9.472,9.472,0,1,0,9.472,9.472,9.483,9.483,0,0,0-9.472-9.472" transform="translate(-9.279 -9.07)" fill="#302d2c"/><path d="M105.92,23.077a11.5,11.5,0,0,0-1.656,4.053,12.208,12.208,0,0,0,2.292,9.961,1.354,1.354,0,1,0,2.129-1.672,9.571,9.571,0,0,1-1.5-8.781,7.184,7.184,0,0,1,.506-1.226,9.547,9.547,0,0,1,7.9-5.216,5.291,5.291,0,0,1,.84-2.722,12.181,12.181,0,0,0-10.505,5.6m19.954-.813a5.342,5.342,0,0,1-1.7,2.282,9.55,9.55,0,0,1,1.2,7.465,8.575,8.575,0,0,1-1,2.421,9.522,9.522,0,0,1-6.965,4.6,1.354,1.354,0,1,0,.324,2.687,12.2,12.2,0,0,0,8.682-5.451,11.5,11.5,0,0,0,1.684-4.043,12.2,12.2,0,0,0-2.231-9.965" transform="translate(-29.061 -9.073)" fill="#009389"/><path d="M133.269,5.509h-3.026l-4.249,8.222a3.278,3.278,0,1,0,2.528.963Z" transform="translate(-34.334 -5.509)" fill="#302d2c"/><path d="M194.787,40.143,183.962,18.492a1.353,1.353,0,0,0-2.421,0l-9.617,19.234-9.617-19.234a1.353,1.353,0,0,0-2.421,0l-4.2,8.4-4.2-8.4a1.353,1.353,0,0,0-2.421,0L138.237,40.143a1.353,1.353,0,0,0,1.21,1.959h0a1.353,1.353,0,0,0,1.21-.748l9.615-19.23,5.412,10.825L161.1,22.123l9.615,19.23c.012.022.03.039.042.061a1.294,1.294,0,0,0,.1.138,1.358,1.358,0,0,0,.113.142,1.378,1.378,0,0,0,.15.123,1.222,1.222,0,0,0,.12.092,1.322,1.322,0,0,0,.235.1c.031.012.059.029.091.037a1.324,1.324,0,0,0,.311.044c.019,0,.036.008.054.008h0c.017,0,.034-.007.052-.008a1.343,1.343,0,0,0,.313-.044c.031-.009.058-.025.088-.036a1.384,1.384,0,0,0,.238-.105,1.406,1.406,0,0,0,.117-.09,1.268,1.268,0,0,0,.152-.125,1.323,1.323,0,0,0,.112-.14,1.463,1.463,0,0,0,.1-.14c.012-.021.03-.037.041-.06l9.615-19.23,9.615,19.23a1.353,1.353,0,1,0,2.421-1.211" transform="translate(-38.582 -9.15)" fill="#302d2c"/><path d="M257.784,35.473h-4.961V32.766h4.961a1.353,1.353,0,0,1,0,2.707" transform="translate(-70.637 -13.268)" fill="#009389"/><path d="M264.907,20.451a1.353,1.353,0,1,0,0-2.707H246.414a1.353,1.353,0,0,0-1.353,1.353V40.748a1.353,1.353,0,0,0,1.353,1.353h18.493a1.353,1.353,0,1,0,0-2.707h-17.14V20.451Z" transform="translate(-68.468 -9.15)" fill="#302d2c"/><path d="M294.586,28.579h-9.021a4.063,4.063,0,0,1-4.025-4.594,4.153,4.153,0,0,1,4.166-3.525H300a1.353,1.353,0,1,0,0-2.706H285.565a6.773,6.773,0,0,0-6.736,7.418,6.9,6.9,0,0,0,6.933,6.114h8.824a4.066,4.066,0,0,1,4.025,4.594,4.157,4.157,0,0,1-4.168,3.524H280.151a1.353,1.353,0,1,0,0,2.707h14.236A6.9,6.9,0,0,0,301.32,36a6.773,6.773,0,0,0-6.734-7.418" transform="translate(-77.894 -9.152)" fill="#302d2c"/><path d="M231.207,17.744H212.714a1.353,1.353,0,1,0,0,2.707h7.894v20.3a1.353,1.353,0,0,0,2.706,0v-20.3h7.894a1.353,1.353,0,1,0,0-2.707" transform="translate(-59.052 -9.15)" fill="#302d2c"/><path d="M239.212,35.473h-39.67a1.353,1.353,0,1,1,0-2.707h39.67Z" transform="translate(-55.372 -13.268)" fill="#009389"/></g></g></svg>