<svg xmlns="http://www.w3.org/2000/svg" xmlns:xlink="http://www.w3.org/1999/xlink" width="160" height="49.755" viewBox="0 0 160 49.755"><defs><clipPath id="a"><rect width="160" height="49.755" fill="none"/></clipPath></defs><g clip-path="url(#a)"><path d="M248.449,44.787a2.223,2.223,0,0,1-2.222-2.222V34.787h-8.889v7.778a2.223,2.223,0,0,1-2.222,2.222h-4.444v6.667h4.444a2.222,2.222,0,0,1,2.222,2.222V68.12h8.889V53.676a2.222,2.222,0,0,1,2.222-2.222h4.444V44.787Z" transform="translate(-121.782 -18.366)"/><path d="M186.987,47.332a2.223,2.223,0,0,1-2.222-2.222V20.665h-8.889V45.109a2.223,2.223,0,0,1-2.222,2.222h-8.889V54h8.889a2.222,2.222,0,0,1,2.222,2.222v4.445h8.889V56.22A2.222,2.222,0,0,1,186.987,54h8.889V47.332Z" transform="translate(-86.987 -10.91)"/><path d="M110.423,27.331a2.223,2.223,0,0,1-2.222-2.222V20.664H99.312v4.444a2.223,2.223,0,0,1-2.222,2.222h-10V34h10a2.222,2.222,0,0,1,2.222,2.222V60.664H108.2V36.22A2.222,2.222,0,0,1,110.423,34h10V27.331Z" transform="translate(-45.979 -10.91)"/><rect width="11.111" height="6.667" transform="translate(77.778 16.421)" fill="#0a58a5"/><rect width="11.111" height="6.667" transform="translate(97.778 16.421)" fill="#0a58a5"/><path d="M143.318,13.6l-4.444,7.778h8.889Z" transform="translate(-73.318 -7.182)" fill="#f84e6b"/><path d="M159.794,21.381l4.444-7.778H155.35Z" transform="translate(-82.017 -7.181)" fill="#f84e6b"/><rect width="4.444" height="11.111" transform="translate(12.222 24.199)" fill="#ff8c00"/><rect width="4.444" height="11.111" transform="translate(21.111 24.199)" fill="#ff8c00"/><path d="M329,54l-8.889,6.667v-40H329Z" transform="translate(-169.005 -10.91)"/><path d="M286.637,62.638,277.748,69.3V55.971h8.889Z" transform="translate(-146.637 -29.55)" fill="#41ac65"/><rect width="8.889" height="23.334" transform="translate(41.111 26.421)"/><rect width="8.889" height="23.334" transform="translate(65.556 26.421)"/><rect width="20" height="6.667" transform="translate(131.111 43.088)" fill="#ff8c00"/><rect width="16.667" height="6.667" transform="translate(131.111 9.754)"/><path d="M122,38.121a3.333,3.333,0,1,1-3.333-3.333A3.333,3.333,0,0,1,122,38.121" transform="translate(-60.891 -18.366)" fill="#fff"/><path d="M197.324,80.489a3.333,3.333,0,1,1-3.333-3.333,3.333,3.333,0,0,1,3.333,3.333" transform="translate(-100.657 -40.734)" fill="#fff"/><path d="M253.815,59.305a3.333,3.333,0,1,1-3.333-3.333,3.333,3.333,0,0,1,3.333,3.333" transform="translate(-130.481 -29.55)" fill="#fff"/><path d="M26.314,20.664H8.889L0,27.331V54H8.889V29.553a2.222,2.222,0,0,1,2.222-2.222h15.2a7.7,7.7,0,0,1,0-6.667" transform="translate(0 -10.91)"/><path d="M43.275,42.636a7.737,7.737,0,0,1-4.444-1.4v21.4a2.223,2.223,0,0,1-2.222,2.222H18.831v6.667h20l8.889-6.667V41.236a7.737,7.737,0,0,1-4.444,1.4" transform="translate(-9.942 -21.77)"/><path d="M76.393,4.374,71.361,0,64.8,7.552c-.131-.009-.262-.02-.4-.02a5.562,5.562,0,1,0,5.43,4.389Z" transform="translate(-31.067)" fill="#ff8c00"/></g></svg>