<svg xmlns="http://www.w3.org/2000/svg" xmlns:xlink="http://www.w3.org/1999/xlink" width="575" height="272" viewBox="0 0 575 272"><defs><clipPath id="a"><rect width="575" height="272" fill="none"/></clipPath></defs><rect width="567" height="264" transform="translate(8 8)"/><rect width="567" height="264" transform="translate(4 4)" fill="#fff"/><path d="M7,265H568V7H7ZM4,4H571V268H4Z"/><path d="M74.649,84.584v2.805h-9.24V48.18h42.235V87.389H98.515V84.584ZM98.515,56.373H74.648V76.445H98.515Z" fill="#4ecb56"/><g clip-path="url(#a)"><path d="M132.062,69.352c.385.219.66.439.66.769,0,.715-.88.715-1.43.66a58.025,58.025,0,0,1-11,13.748,46.285,46.285,0,0,0-7.424-5.609c5.555-4.454,8.579-7.974,11.714-14.133ZM134.316,42.4l8.964.33c.44,0,.935.165.935.715,0,.44-.44.659-.88.88v9.459h17.983v8.028H143.335V82.165c0,3.464,0,8.194-9.238,8.194a18.966,18.966,0,0,1-3.63-.331c-.77-3.9-1.045-5.223-2.86-8.688a20.855,20.855,0,0,0,4.675.605c1.594,0,2.034-.55,2.034-2.915V61.817H116.334V53.789h17.982Zm18.423,21.722a90.884,90.884,0,0,1,11,13.309c-1.485,1.21-2.53,2.144-6.82,5.883-5.224-8.743-8.8-12.262-10.558-13.967Zm1.54-21.557a36.312,36.312,0,0,1,5.059,5.554c-1.265.99-3.465,2.805-4.344,3.52a43.767,43.767,0,0,0-5.06-5.719Zm6.819-3.024a33.778,33.778,0,0,1,5.114,5.554c-2.145,1.65-2.639,2.09-4.344,3.519a37.325,37.325,0,0,0-5.06-5.719Z" fill="#4ecb56"/><path d="M176.085,55.054a86.235,86.235,0,0,1,5.059,10.064,35.658,35.658,0,0,0-6.984,3.409,116.517,116.517,0,0,0-5.169-10.5Zm31.125.88c.6.165,1.045.33,1.045.824,0,.551-.77.606-1.045.606-4.619,19.521-13.473,27.221-26.231,32.721a22.239,22.239,0,0,0-5.224-6.215c14.078-5.444,21.117-12.923,23.482-30.41ZM187.3,52.523a40.289,40.289,0,0,1,4.509,10.34,56.331,56.331,0,0,0-6.928,2.859A87.29,87.29,0,0,0,180.1,55.439Z" fill="#4ecb56"/><path d="M233.894,56.648c8.139,4.125,15.123,8.855,19.192,12.924-2.474,3.574-2.75,3.96-5.169,7.7a81.255,81.255,0,0,0-17.158-12.208V90.854h-9.294V42.295l9.294.441c.385,0,1.045.055,1.045.6s-.6.77-1.045.88V61.048Z" fill="#4ecb56"/><path d="M271.653,45.65c1.045.385,1.485.55,1.485.935,0,.494-1.1.6-1.485.659-1.65,4.9-3.574,11.165-3.574,22.712a19.139,19.139,0,0,0,.384,4.4c.33-.605,1.65-3.025,2.31-4.124a16.153,16.153,0,0,0,4.234,4.51c-1.374,2.584-3.9,8.963-3.629,13.142l-7.809,2.09a57.958,57.958,0,0,1-3.9-22c0-9.953,1.54-16.773,3.52-25.517ZM286.171,71.5a14.937,14.937,0,0,0-.825,3.9c0,2.42,1.32,2.8,7.644,2.8a55.986,55.986,0,0,0,13.583-1.484,36.541,36.541,0,0,0-.825,8.964,116.673,116.673,0,0,1-13.913.715c-8.194,0-14.518-1.43-14.518-8.139a20.364,20.364,0,0,1,1.815-8.084Zm-6.654-23.481c1.649.109,3.849.274,7.149.274a63.81,63.81,0,0,0,16.167-1.759,83.366,83.366,0,0,0,.77,8.359,81.96,81.96,0,0,1-16.937,1.649c-3.245,0-5.389-.165-7.149-.274Z"/><path d="M308.763,52.3a44.256,44.256,0,0,0,6.929-1.319c15.508-4.071,19.248-5.005,25.3-5.005,13.2,0,18.972,8.744,18.972,18.423,0,20.732-25.021,22.271-33.875,22.712a36.5,36.5,0,0,0-2.8-8.8c9.9.054,27.387-.276,27.387-13.8,0-2.859-.99-10.5-10.724-10.5-8.194,0-21.777,5.554-27.716,8.908Z"/><path d="M376,46.859c.5.165,1.1.33,1.1.825,0,.715-.661.826-1.156.88a49.239,49.239,0,0,0-3.079,16.553c0,6.709,2.09,11.384,3.684,11.384,1.76,0,3.85-4.84,5.335-8.305a24.972,24.972,0,0,0,5.774,5.829c-4.4,10.669-9.4,14.408-12.1,14.408-3.08,0-11.219-6.543-11.219-23.536,0-7.039,1.21-13.473,2.695-20.567Zm26.562.385c6.049,8.14,10.174,17.488,11.108,27.662-3.244,1.265-7.149,3.134-8.963,4.069a50.082,50.082,0,0,0-9.239-27.221Z"/><path d="M463.318,51.2c-15.728-.165-25.077,13.638-25.077,20.787,0,9.129,12.429,9.789,15.344,9.954a48.257,48.257,0,0,0-4.125,9.9c-9.624-2.255-20.237-7.369-20.237-19.193,0-10.119,7.589-16.443,9.733-18.2a186.5,186.5,0,0,0-22.712,3.245l-1.155-10.339c1.21.055,2.365.165,4.125.165,8.084,0,30.026-1.54,42.509-5.444Z"/><path d="M488.995,82.385c11.933-2.2,15.453-11.438,15.453-17.158,0-4.454-2.365-12.648-12.7-13.473-1.7,20.127-10.008,35.141-15.837,35.141-4.29,0-12.264-7.26-12.264-17.433,0-11.824,10.779-25.627,26.947-25.627,12.043,0,22.546,8.195,22.546,21.337,0,2.53-.22,9.569-6.489,16.993-3.354,3.9-7.259,5.939-11.933,7.974a35.686,35.686,0,0,0-5.719-7.754M471.782,68.8c0,4.234,2.365,7.424,3.52,7.424,1.319,0,2.364-2.475,2.969-3.9A48.114,48.114,0,0,0,482.506,53.4c-6.38,2.365-10.724,10.449-10.724,15.4"/><path d="M90.926,148.361v7.148c0,5.665-4.18,5.83-13.858,5.665a19.728,19.728,0,0,0-2.31-7.59c.825,0,5.114.165,6.05.165,2.034,0,2.034-.274,2.034-3.079v-2.309H61.725v-6.655H82.842v-3.574l2.585.274a26.431,26.431,0,0,0,2.8-2.969H72.009v-6.544H98.46l3.189,3.96a56.944,56.944,0,0,1-9.9,8.853h19.577v6.655Zm-7.534-28.267a35.126,35.126,0,0,0-5.444-7.534l7.094-3.079a37.705,37.705,0,0,1,5.609,7.973c-.77.441-4.4,2.255-5.114,2.64h7.644A52.907,52.907,0,0,0,98.79,110.8l7.754,2.365c.275.11.935.385.935.935,0,.66-.88.825-1.87.99-1.43,2.475-1.815,3.025-3.134,5h8.358v14.463h-7.754v-8.3H69.864v8.3H62.275V120.094h7.644a34.833,34.833,0,0,0-4.345-6.1l6.71-3.3a28.473,28.473,0,0,1,5.334,7.478c-2.365,1.265-2.915,1.54-3.52,1.925Z" fill="#00a6b4"/><path d="M137.562,118.389a32.9,32.9,0,0,0-9.679,22.767c0,6.874,3.74,9.789,8.634,9.789,8.579,0,11.219-8.249,11.219-14.134,0-7.2-2.255-13.307-6.6-20.567l8.14-4.234c3.629,7.974,8.8,13.473,17.047,19.578a81.2,81.2,0,0,0-4.619,7.148,48.224,48.224,0,0,1-6.984-7.148,33.9,33.9,0,0,1,.715,7.368c0,5.114-1.43,20.183-18.258,20.183-12.538,0-18.038-8.524-18.038-16.388,0-7.369,4.895-16.883,5.5-18.038a37.78,37.78,0,0,1-7.094,2.474l-2.585-9.073a31.6,31.6,0,0,0,16.828-6.1Zm20.512-5.5a58.5,58.5,0,0,1,4.29,5.774c-1.21.99-1.485,1.21-3.685,3.244-1.1-1.7-3.079-4.784-4.4-6.379Zm4.455-3.685c1.76,1.925,3.08,3.465,4.674,5.5-.66.494-3.354,2.64-3.9,3.079a48.256,48.256,0,0,0-4.29-5.609Z" fill="#00a6b4"/><path d="M195.124,111.35c.33.056,1.1.221,1.1.99s-.99.825-1.375.825l-1.265,2.695a59.152,59.152,0,0,0,11.383-2.585v8.139c-8.194,1.43-9.183,1.6-15.673,2.365-.659,1.155-.77,1.375-2.144,3.795a10.409,10.409,0,0,1,4.784-1.1,9.661,9.661,0,0,1,8.029,4.675c8.139-3.9,9.074-4.289,11.109-5.444l3.244,8.8a131.227,131.227,0,0,0-12.538,4.454c.11,1.6.165,3.3.165,4.951,0,2.474-.11,4.013-.165,5.5-1.76-.111-3.739-.111-5.5-.111a24.337,24.337,0,0,0-3.19.111,47.661,47.661,0,0,0,.385-6.27c-3.41,2.09-6.874,4.4-6.874,6.654,0,2.475,5.609,2.64,8.414,2.64a61.822,61.822,0,0,0,17.6-2.694,34.561,34.561,0,0,0-1.045,8.743,68.242,68.242,0,0,1-15.342,1.6c-3.685,0-17.983,0-17.983-9.734,0-6.489,8.744-11.933,14.738-15.068a3.99,3.99,0,0,0-4.125-2.749c-5.719,0-9.568,6.159-12.593,11.054l-7.644-4.345a117.334,117.334,0,0,0,11.164-14.793c-2.97.11-5.389.11-7.754.055l.055-7.974c1.705.165,4.894.439,8.634.439,1.6,0,2.254,0,3.134-.054a40.98,40.98,0,0,0,2.915-7.2Z" fill="#00a6b4"/><path d="M248.028,111.4l9.293.5c.441,0,.826.165.826.55a1.133,1.133,0,0,1-.826.989V122.4h9.569v8.579h-9.623c-.275,8.3-1.21,11-1.705,12.429a29.805,29.805,0,0,1-16.223,17.267,25.969,25.969,0,0,0-6.764-6.819c9.624-3.409,12.813-9.9,13.473-11.328,1.6-3.575,1.76-7.1,1.98-11.549h-9.514v12.264h-8.908V130.982H219.157V122.4h10.449V111.735l8.633.5c.495.055,1.155.055,1.155.659,0,.385-.44.606-.88.88V122.4h9.514Z" fill="#00a6b4"/><path d="M288.229,138.406c.605.33.88.55.88.936,0,.715-1.155.6-1.485.6-2.529,4.289-7.314,10.559-11.053,13.8a44.348,44.348,0,0,0-7.314-5.554,38.569,38.569,0,0,0,11.658-14.188Zm2.365-26.891,9.074.275c.275,0,.825.055.825.6,0,.44-.44.714-.77.935v9.623H317.87v7.975H299.723V150.56c0,3.575,0,8.854-9.129,8.854a30.876,30.876,0,0,1-3.739-.275,27.2,27.2,0,0,0-2.86-8.579,24.657,24.657,0,0,0,4.509.549c2.09,0,2.09-1.484,2.09-2.859V130.928H272.556v-7.975h18.038Zm18.753,21.612c2.2,2.145,7.7,7.7,11,13.254-2.97,2.475-4.29,3.574-6.764,5.938A64.02,64.02,0,0,0,302.912,138.3ZM320.29,114.21a5.17,5.17,0,1,1-5.169-5.17,5.164,5.164,0,0,1,5.169,5.17m-7.589,0a2.453,2.453,0,0,0,2.42,2.475,2.386,2.386,0,0,0,2.419-2.475,2.42,2.42,0,1,0-4.839,0" fill="#00a6b4"/><rect width="47.789" height="9.349" transform="translate(323.766 131.147)" fill="#00a6b4"/><path d="M396.908,125.648c8.139,4.125,15.123,8.855,19.192,12.924-2.474,3.574-2.75,3.96-5.169,7.7a81.216,81.216,0,0,0-17.158-12.208v25.791h-9.294V111.295l9.294.441c.385,0,1.045.055,1.045.6s-.6.77-1.045.88v16.828Z" fill="#00a6b4"/><path d="M447.255,111.35c.879.11,1.374.165,1.374.605,0,.6-.66.826-1.1.935-.11.99-.166,1.65-.275,3.85,15.507-.661,17.212-.715,18.257-.826-.055,1.156-.165,6.6.055,8.855-9.954-.495-14.133-.495-18.147-.441a44.613,44.613,0,0,0,.054,6.1c3.19,3.9,3.19,9.789,3.19,10.559,0,7.808-5.114,16.937-12.759,21.227a36.819,36.819,0,0,0-8.028-5.665c1.65-.659,8.139-3.409,10.118-7.919a6.144,6.144,0,0,1-4.344,1.32c-.88,0-4.015,0-5.939-2.474-1.98-2.53-2.365-6.1-2.365-8.139,0-12.1,10.339-11.714,11.494-11.549.055-1.759.055-2.255.055-3.08a148.956,148.956,0,0,0-21.943,2.861l-.6-9.294c1.265.054,3.354-.055,22.327-1.156a57.71,57.71,0,0,0-.771-6.983Zm-12.7,27.5c0,3.629,1.815,4.619,2.8,4.619,1.705,0,2.7-2.529,2.7-5.279,0-1.265-.275-3.409-2.475-3.409-1.815,0-3.025,1.814-3.025,4.069"/><path d="M504.971,116.96c-3.74,2.474-12.263,11-13.473,12.263a29.834,29.834,0,0,1,6.6-.825c7.479,0,15.178,4.729,15.178,14.464,0,12.1-11.494,17.377-21.007,17.377-7.1,0-13.969-2.8-13.969-9.458,0-5.445,5.06-8.8,10.779-8.8,5.169,0,10.559,2.914,11.823,8.083,3.63-1.814,3.63-6.049,3.63-6.488,0-1.321-.44-8.03-8.964-8.03-9.294,0-14.573,5.445-22.217,13.418l-6.6-6.433c6.324-4.4,18.587-16.5,22.272-21.393-1.76.384-3.629.825-14.628,1.925l-1.32-8.634c2.145.055,18.038.22,27.5-3.465Zm-16.553,31.895c-1.87,0-2.31,1.046-2.31,1.98,0,2.089,3.08,2.915,4.95,2.915a9.1,9.1,0,0,0,2.749-.44,5.4,5.4,0,0,0-5.389-4.455"/><path d="M90.875,198.938v-8.3h24.637V179.965l9.184.55c.605.056,1.045.056,1.045.606,0,.495-.6.825-1.045.989v8.524h11.383v8.3H124.7V221.6c0,2.749-.6,4.73-3.63,6.159-.55.275-3.355,1.54-8.854,1.265a23.039,23.039,0,0,0-3.189-9.294,17.517,17.517,0,0,0,4.124.606c2.255,0,2.365-1.045,2.365-3.246v-9.953a57.758,57.758,0,0,1-19.633,16.333,24.919,24.919,0,0,0-5.939-6.984,50.794,50.794,0,0,0,21.337-17.543Z"/><path d="M178.991,188.489a9.88,9.88,0,0,0,4.069-.55l5.445,4.014c-.33,1.32-1.815,7.2-2.145,8.414-2.805,9.624-5.994,16.828-13.033,23.482a30.152,30.152,0,0,1-9.789,6.544,28.325,28.325,0,0,0-6.984-6.434c5.664-1.815,11.713-6.764,14.958-11.218,2.145-3.025,4.9-8.249,6.654-16.443H151.88v11.768h-9.019V188.489h17.213V180.13l9.4.384c.44,0,1.21.056,1.21.551,0,.6-.825.935-1.21,1.044v6.38Z"/><path d="M198.74,181.175c9.239,4.729,12.1,7.479,13.748,9.019-1.32,1.6-1.705,2.2-5.335,7.479a56.562,56.562,0,0,0-13.858-8.8Zm-4.51,38c15.673-3.244,31.126-13.858,40.915-29.586a35.256,35.256,0,0,0,5.664,7.48,72.8,72.8,0,0,1-17.1,18.312,91.445,91.445,0,0,1-22.657,12.263c0,.6-.275,1.21-.77,1.21-.33,0-.549-.165-.88-.77Z"/><path d="M263.457,194.813c6.764,3.685,13.418,7.644,19.027,12.923a85.259,85.259,0,0,0-5.389,7.974,66.745,66.745,0,0,0-16.938-12.648v26.067h-9.4V180.515l9.4.33c.275,0,.99.055.99.715s-.605.825-.99.935v16.992Zm12.263-9.734a54.1,54.1,0,0,1,5.609,5.609c-1.265,1.045-3.3,2.7-4.509,3.74a37.219,37.219,0,0,0-5.389-5.829Zm5.884-4.289a34.171,34.171,0,0,1,5.609,5.555c-.714.549-3.574,2.968-4.124,3.409a62.719,62.719,0,0,0-5.719-5.775Z"/><path d="M325.164,186.345c.275.109.715.439.715.77,0,.6-.77.879-1.6.99A108.808,108.808,0,0,1,316.145,204c5.06,4.9,6.489,6.544,8.194,9.074-1.265,1.155-4.454,4.62-6.654,6.929-1.6-2.474-2.8-4.014-6.984-8.579a60.9,60.9,0,0,1-19.193,15.673,28.569,28.569,0,0,0-6.928-6.6,49.846,49.846,0,0,0,19.632-15.343,69.763,69.763,0,0,0-10.174-7.644l5.169-7.039c4.73,3.355,7.259,5.169,10.174,7.589a69.624,69.624,0,0,0,6.654-15.783Z"/><path d="M330.939,204v-7.864h46.854V204H359.865c-.77,19.138-14.353,23.922-18.038,25.187a29.222,29.222,0,0,0-6.764-6.764C350.3,218.57,350.737,208.177,350.9,204Zm42.619-19.852a69.111,69.111,0,0,1,5.555,5.719c-.605.66-3.08,3.52-3.575,4.124a36.235,36.235,0,0,0-5.279-5.554v1.375H338.8v-7.974h31.456v5.884Zm2.8-6.764a68.879,68.879,0,0,1,5.664,5.719A31.652,31.652,0,0,0,378.4,186.9a39.974,39.974,0,0,0-5.389-5.72Z"/><path d="M407.864,228.249h-8.139V209.111a67.17,67.17,0,0,1-11.109,5.555,26.134,26.134,0,0,0-5.5-6.489,59.745,59.745,0,0,0,29.476-19.907l6.435,5.114c.219.219.439.385.439.659,0,.44-.5.44-.77.44a2.681,2.681,0,0,1-.66-.055,84.426,84.426,0,0,1-10.173,9.239Z"/><path d="M468.279,183.265a9.049,9.049,0,0,0,3.08-.495l6.1,5.609c-.55.77-.715,1.045-1.98,2.859a125.264,125.264,0,0,1-14.793,18.149,27.564,27.564,0,0,0-6.324-6.05,58.96,58.96,0,0,0,10.284-11.769H427.86v-8.3Zm-13.308,10.448c.385,0,.99.056.99.66,0,.55-.715.825-.99.936-.22,6.049-1.21,12.208-2.86,16.442-2.2,5.664-7.369,12.593-13.8,16.277a45.657,45.657,0,0,0-7.7-5.829c7.7-4.4,16-10.393,15.013-29.036Z"/></g></svg>